<svg id="Capa_1" data-name="Capa 1" xmlns="http://www.w3.org/2000/svg" viewBox="0 0 4.18 16.15">
  <title>AvisoPrivacidad</title><defs><style>.cls-1{fill:#ffffff;}</style></defs><title>telinai</title><path class="cls-1" d="M177,169a2,2,0,0,0-1.6-.63,2.15,2.15,0,0,0-1.65.6,2.07,2.07,0,0,0-.47,1.61c.2,2.64.44,5.25.68,7.91a1.42,1.42,0,0,0,1.38,1.33h0a1.41,1.41,0,0,0,1.38-1.35c.21-2.24.42-4.62.61-6.89l.08-.93A2.25,2.25,0,0,0,177,169Zm-.26,1.56-.08,1c-.2,2.27-.41,4.65-.61,6.89a.72.72,0,0,1-.69.72h0a.71.71,0,0,1-.68-.7c-.24-2.66-.48-5.26-.68-7.9a1.44,1.44,0,0,1,.29-1.08,1.49,1.49,0,0,1,1.13-.38,1.34,1.34,0,0,1,1.06.38A1.56,1.56,0,0,1,176.72,170.59Z" transform="translate(-173.25 -168.4)"/>
  <path class="cls-1" d="M175.33,180.31h0a2,2,0,0,0-1.47.61,2.16,2.16,0,0,0-.61,1.57,2,2,0,0,0,2.09,2.06h0a2,2,0,0,0,2-2.12A2.08,2.08,0,0,0,175.33,180.31Zm0,3.53h0a1.34,1.34,0,0,1-1.39-1.37,1.46,1.46,0,0,1,.41-1.06,1.35,1.35,0,0,1,1-.4h0a1.37,1.37,0,0,1,1.38,1.41A1.35,1.35,0,0,1,175.35,183.85Z" transform="translate(-173.25 -168.4)"/></svg>
