<?xml version="1.0" encoding="utf-8"?>
<!-- Generator: Adobe Illustrator 21.1.0, SVG Export Plug-In . SVG Version: 6.00 Build 0)  -->
<svg version="1.1" id="Capa_1" xmlns="http://www.w3.org/2000/svg" xmlns:xlink="http://www.w3.org/1999/xlink" x="0px" y="0px"
	 viewBox="0 0 12.5 16.2" style="enable-background:new 0 0 12.5 16.2;" xml:space="preserve">
<title>Guia</title>
<path style="fill:#FFFFFF;" d="M9.8,3.7H2.7c-0.2,0-0.4-0.2-0.4-0.4S2.5,3,2.7,3l0,0h7.2c0.2,0,0.4,0.2,0.4,0.4S10,3.7,9.8,3.7
	L9.8,3.7z"/>
<path style="fill:#FFFFFF;" d="M9.8,5.3H2.7C2.5,5.3,2.3,5.2,2.3,5s0.2-0.4,0.4-0.4l0,0h7.2c0.2,0,0.4,0.2,0.4,0.4S10,5.3,9.8,5.3
	L9.8,5.3z"/>
<path style="fill:#FFFFFF;" d="M12.2,16.2H2.5c-1.4,0-2.5-1.1-2.5-2.5c0,0,0,0,0,0V0.4C0,0.2,0.2,0,0.4,0l0,0H10
	c1.4,0,2.5,1.1,2.5,2.5c0,0,0,0,0,0v13.4C12.5,16.1,12.3,16.2,12.2,16.2z M0.7,0.7v13c0,1,0.8,1.8,1.8,1.8h9.3v-13
	c0-1-0.8-1.8-1.8-1.8H0.7z"/>
<path style="fill:#FFFFFF;" d="M5.6,11.7c-0.4,0-0.6-0.3-0.6-0.6v0v-2c0-0.4,0.3-0.6,0.6-0.7c0.1,0,0.3,0,0.4,0.1l1.6,1
	c0.3,0.2,0.4,0.6,0.2,0.9c0,0.1-0.1,0.1-0.2,0.2l-1.6,1C5.8,11.7,5.7,11.7,5.6,11.7z M5.6,9.2V11L7,10.1L5.6,9.2z"/>
<path style="fill:#FFFFFF;" d="M8.8,13H3.7c-0.2,0-0.4-0.2-0.4-0.4l0,0V7.6c0-0.2,0.2-0.4,0.4-0.4l0,0h5.1c0.2,0,0.4,0.2,0.4,0.4
	l0,0v5.1C9.2,12.9,9,13,8.8,13z M4,12.3h4.4V7.9H4V12.3z"/>
</svg>
