<svg id="Capa_1" data-name="Capa 1" xmlns="http://www.w3.org/2000/svg" viewBox="0 0 787.89 290.43"><defs><style>.cls-1{opacity:0.3;}.cls-2{fill:#fff;}</style></defs><title>Sin título-2</title><g class="cls-1"><path class="cls-2" d="M383.11,587.32q27.25,0,46.37,7.93T460.6,616.2a80.58,80.58,0,0,1,17.49,29.69,110.94,110.94,0,0,1,0,68.95,80.23,80.23,0,0,1-17.49,29.9q-12,13-31.12,20.95t-46.37,7.93H316V877.74H252.13V587.32ZM365.62,724a133.52,133.52,0,0,0,21.15-1.63,49.16,49.16,0,0,0,17.9-6.3,34.37,34.37,0,0,0,12.41-13.22q4.67-8.54,4.68-22.37t-4.68-22.37a34.42,34.42,0,0,0-12.41-13.22,49.39,49.39,0,0,0-17.9-6.3,134.22,134.22,0,0,0-21.15-1.63H316v87Z" transform="translate(-252.13 -587.32)"/><path class="cls-2" d="M586.89,587.32,708.11,782.15h.81V587.32h59.79V877.74H704.85L584,683.31h-.81V877.74H523.44V587.32Z" transform="translate(-252.13 -587.32)"/><path class="cls-2" d="M802.07,641V587.32h238V641H953V877.74H889.11V641Z" transform="translate(-252.13 -587.32)"/></g></svg>