<svg id="Capa_1" data-name="Capa 1" xmlns="http://www.w3.org/2000/svg" viewBox="0 0 6.02 15.96"><defs><style>.cls-1{fill:#ffffff;}</style></defs><title>telinai</title><path class="cls-1" d="M243.73,384.82a.37.37,0,0,0-.36-.36h-1.16a.8.8,0,0,1-.8-.79l-.12-2.57a.8.8,0,0,1,.79-.8h1.3a.4.4,0,0,0,.4-.4l-.06-5.31a.39.39,0,0,0-.11-.25.39.39,0,0,0-.25-.11c-.07,0-1.74,0-2.13,0a3.41,3.41,0,0,0-2.66,2.25c-1.18,2.79-.94,7.85-.05,11.39a3.4,3.4,0,0,0,.84,1.26,3.15,3.15,0,0,0,2,1c.87.07,2,0,2.06,0a.34.34,0,0,0,.36-.36Zm-2.33,4.53a2.25,2.25,0,0,1-1.49-.75,2.44,2.44,0,0,1-.62-.9c-1-4-1.06-8.53,0-10.88a3,3,0,0,1,1.94-1.82H243l0,4.48H242a1.54,1.54,0,0,0-1.55,1.56l.12,2.57a1.64,1.64,0,0,0,1.56,1.55H243l0,4.19a5.86,5.86,0,0,1-1.59,0" transform="translate(-237.75 -374.23)"/></svg>
