<svg id="Capa_1" data-name="Capa 1" xmlns="http://www.w3.org/2000/svg" viewBox="0 0 1426.81 125.22"><defs><style>.cls-1{opacity:0.2;}.cls-2{fill:#fff;}</style></defs><title>Tranparencia</title><g class="cls-1"><path class="cls-2" d="M-62.76,643.75V621.62H35.3v22.13H-.57v97.56H-26.89V643.75Z" transform="translate(62.76 -618.77)"/><path class="cls-2" d="M113.58,621.62a38.53,38.53,0,0,1,14.5,2.6,33.43,33.43,0,0,1,11.06,7.12,31,31,0,0,1,7,10.48,33.61,33.61,0,0,1,2.43,12.82,36,36,0,0,1-4.44,18.27q-4.44,7.71-14.5,11.73V685a20.33,20.33,0,0,1,8,4.11,22.81,22.81,0,0,1,5.2,6.54,30.45,30.45,0,0,1,2.93,8.3,72.45,72.45,0,0,1,1.26,9.05q.16,2.85.34,6.71t.59,7.88a52.44,52.44,0,0,0,1.34,7.63,17.54,17.54,0,0,0,2.77,6.12H125.82a46.33,46.33,0,0,1-2.68-13.58q-.5-7.88-1.51-15.09-1.34-9.39-5.7-13.75t-14.25-4.36H75.36v46.77H49V621.62Zm-9.39,54.14q9.05,0,13.58-4t4.53-13.08q0-8.71-4.53-12.66t-13.58-3.94H75.36v33.69Z" transform="translate(62.76 -618.77)"/><path class="cls-2" d="M229.74,621.62,274.5,741.31H247.18l-9.05-26.65H193.37L184,741.31H157.5l45.26-119.68ZM231.25,695l-15.09-43.92h-.34L200.24,695Z" transform="translate(62.76 -618.77)"/><path class="cls-2" d="M311,621.62l50,80.29h.34V621.62H386V741.31H359.65l-49.78-80.12h-.34v80.12H284.89V621.62Z" transform="translate(62.76 -618.77)"/><path class="cls-2" d="M429.22,711.81A19,19,0,0,0,435,718.6a25,25,0,0,0,8.46,3.85,40,40,0,0,0,10.06,1.26,52.14,52.14,0,0,0,7.54-.59,26.15,26.15,0,0,0,7.54-2.26,16.43,16.43,0,0,0,5.87-4.61,11.56,11.56,0,0,0,2.35-7.46,10.5,10.5,0,0,0-3.1-7.88,24.6,24.6,0,0,0-8.13-5,81.26,81.26,0,0,0-11.4-3.52q-6.37-1.51-12.91-3.35a114,114,0,0,1-13.08-4.11,44.78,44.78,0,0,1-11.4-6.28,29.59,29.59,0,0,1-8.13-9.64,29.24,29.24,0,0,1-3.1-14,31.34,31.34,0,0,1,3.94-16,35.65,35.65,0,0,1,10.31-11.31A45,45,0,0,1,434.24,621a61.4,61.4,0,0,1,16.09-2.18,76.13,76.13,0,0,1,18,2.1,45,45,0,0,1,15.34,6.79,34.37,34.37,0,0,1,10.64,12q3.94,7.29,3.94,17.68H472.8a21.21,21.21,0,0,0-2.26-8.88,14.84,14.84,0,0,0-5.11-5.53,21.64,21.64,0,0,0-7.29-2.85,44.9,44.9,0,0,0-9-.84,30.94,30.94,0,0,0-6.37.67,17.08,17.08,0,0,0-5.78,2.35,14.52,14.52,0,0,0-4.27,4.19,11.25,11.25,0,0,0-1.68,6.37,10.73,10.73,0,0,0,1.34,5.7q1.34,2.18,5.28,4a67.08,67.08,0,0,0,10.9,3.69q7,1.85,18.19,4.69,3.35.67,9.3,2.43A44.62,44.62,0,0,1,487.89,679,35.75,35.75,0,0,1,498,689.26q4.27,6.45,4.27,16.51A36.59,36.59,0,0,1,499.12,721a33.13,33.13,0,0,1-9.47,12.15,45.51,45.51,0,0,1-15.59,8A73.72,73.72,0,0,1,452.52,744a75.7,75.7,0,0,1-19.19-2.43,48.23,48.23,0,0,1-16.43-7.63,37.64,37.64,0,0,1-11.31-13.24q-4.19-8-4-19.11H427A21.94,21.94,0,0,0,429.22,711.81Z" transform="translate(62.76 -618.77)"/><path class="cls-2" d="M571.86,621.62q11.23,0,19.11,3.27a35.74,35.74,0,0,1,12.82,8.63A33.22,33.22,0,0,1,611,645.76a45.75,45.75,0,0,1,0,28.41,33.09,33.09,0,0,1-7.21,12.32A35.72,35.72,0,0,1,591,695.13q-7.88,3.27-19.11,3.27H544.21v42.91H517.89V621.62Zm-7.21,56.32a55,55,0,0,0,8.72-.67,20.25,20.25,0,0,0,7.38-2.6,14.18,14.18,0,0,0,5.11-5.45,23,23,0,0,0,0-18.44,14.2,14.2,0,0,0-5.11-5.45,20.37,20.37,0,0,0-7.38-2.6,55.35,55.35,0,0,0-8.72-.67H544.21v35.87Z" transform="translate(62.76 -618.77)"/><path class="cls-2" d="M677,621.62l44.76,119.68H694.4l-9.05-26.65H640.59l-9.39,26.65H604.72L650,621.62ZM678.47,695l-15.09-43.92h-.33L647.46,695Z" transform="translate(62.76 -618.77)"/><path class="cls-2" d="M796.65,621.62a38.52,38.52,0,0,1,14.5,2.6,33.45,33.45,0,0,1,11.06,7.12,31,31,0,0,1,7,10.48,33.6,33.6,0,0,1,2.43,12.82,36,36,0,0,1-4.44,18.27q-4.44,7.71-14.5,11.73V685a20.32,20.32,0,0,1,8,4.11,22.77,22.77,0,0,1,5.2,6.54,30.4,30.4,0,0,1,2.93,8.3,72.14,72.14,0,0,1,1.26,9.05q.17,2.85.33,6.71t.59,7.88a52.22,52.22,0,0,0,1.34,7.63,17.55,17.55,0,0,0,2.77,6.12H808.89a46.31,46.31,0,0,1-2.68-13.58q-.5-7.88-1.51-15.09-1.34-9.39-5.7-13.75t-14.25-4.36H758.43v46.77H732.11V621.62Zm-9.39,54.14q9.05,0,13.58-4t4.52-13.08q0-8.71-4.52-12.66t-13.58-3.94H758.43v33.69Z" transform="translate(62.76 -618.77)"/><path class="cls-2" d="M942.65,621.62v22.13h-63.2V669.4h58v20.45h-58v29.33H944v22.13H853.14V621.62Z" transform="translate(62.76 -618.77)"/><path class="cls-2" d="M987.91,621.62l50,80.29h.34V621.62h24.64V741.31h-26.32l-49.79-80.12h-.33v80.12H961.76V621.62Z" transform="translate(62.76 -618.77)"/><path class="cls-2" d="M1162.74,653.56a26.51,26.51,0,0,0-5.87-6.62,27.47,27.47,0,0,0-17.27-6,30.73,30.73,0,0,0-15.09,3.44,28.49,28.49,0,0,0-10.06,9.22,40.36,40.36,0,0,0-5.62,13.16,65.43,65.43,0,0,0-1.76,15.25,60.84,60.84,0,0,0,1.76,14.67,39.56,39.56,0,0,0,5.62,12.82,28.74,28.74,0,0,0,10.06,9.14,30.71,30.71,0,0,0,15.09,3.43q12.07,0,18.86-7.37t8.3-19.45h25.48a60.87,60.87,0,0,1-5.2,20.28A48.58,48.58,0,0,1,1176,730.92a47,47,0,0,1-16.09,9.72,59,59,0,0,1-20.28,3.35,61.34,61.34,0,0,1-24.72-4.78,53,53,0,0,1-18.52-13.16,58.26,58.26,0,0,1-11.56-19.7,72.31,72.31,0,0,1-4-24.39,74.82,74.82,0,0,1,4-24.89,59.83,59.83,0,0,1,11.56-20,52.94,52.94,0,0,1,18.52-13.41,64.17,64.17,0,0,1,43.42-2,50.64,50.64,0,0,1,15.76,8.3,44.82,44.82,0,0,1,11.48,13.49,48.23,48.23,0,0,1,5.7,18.44h-25.48A21.51,21.51,0,0,0,1162.74,653.56Z" transform="translate(62.76 -618.77)"/><path class="cls-2" d="M1236.49,621.62V741.31h-26.32V621.62Z" transform="translate(62.76 -618.77)"/><path class="cls-2" d="M1319.3,621.62l44.76,119.68h-27.32l-9.05-26.65h-44.76l-9.39,26.65h-26.49l45.26-119.68Zm1.51,73.42-15.09-43.92h-.33L1289.8,695Z" transform="translate(62.76 -618.77)"/></g></svg>